<svg width="35" height="35" viewBox="0 0 35 35" fill="none" xmlns="http://www.w3.org/2000/svg">
<path d="M31.5292 3.47081C28.6579 0.601136 24.4676 -0.546086 19.7377 0.243034C15.2428 0.991646 10.7511 3.4222 7.08587 7.08586C3.42058 10.7495 0.991647 15.2428 0.243035 19.7377C-0.546087 24.4708 0.601137 28.6579 3.47082 31.5292C5.74906 33.8074 8.85855 35 12.412 35C13.3672 34.9973 14.3205 34.916 15.2623 34.7569C19.7572 34.0083 24.2489 31.5778 27.9141 27.9141C31.5794 24.2505 34.0084 19.7572 34.757 15.2623C35.5461 10.5324 34.3989 6.34211 31.5292 3.47081ZM4.07846 20.3761C4.6942 16.6752 6.73911 12.9322 9.83564 9.84373C12.9322 6.75531 16.6752 4.69906 20.3762 4.07845C21.0999 3.95484 21.8327 3.89143 22.5669 3.88887C23.5672 3.88159 24.5631 4.02191 25.5225 4.30531C24.1997 4.89884 22.9541 5.65138 21.8134 6.54628C18.5727 9.10161 16.4856 12.6583 15.5944 17.1192C14.1442 24.3671 9.06434 27.0197 5.53679 27.9903C4.09142 26.0604 3.57452 23.3998 4.07846 20.3761ZM30.9215 14.6238C30.3058 18.3248 28.2609 22.0678 25.1644 25.1643C22.0678 28.2609 18.3248 30.3009 14.6238 30.9215C12.7361 31.2359 10.9942 31.15 9.47916 30.6914C10.8012 30.0997 12.0457 29.3482 13.1849 28.4537C16.4257 25.8984 18.5144 22.3417 19.4056 17.8808C20.8639 10.6329 25.9357 7.98031 29.4632 7.00971C30.9086 8.93957 31.4255 11.6002 30.9215 14.6238Z" fill="#592007"/>
</svg>
