<svg width="39" height="49" viewBox="0 0 39 49" fill="none" xmlns="http://www.w3.org/2000/svg">
<path d="M9.98188 2L2.13088 20.3808C2.02229 20.643 1.98029 20.9276 2.00856 21.2097C2.03683 21.4918 2.13451 21.7627 2.29302 21.9985C2.45152 22.2344 2.666 22.428 2.9176 22.5624C3.16921 22.6968 3.45023 22.7678 3.73598 22.7692H13.4712L6.49255 47L36.4659 18.8231C36.7149 18.5851 36.887 18.2791 36.9603 17.9439C37.0336 17.6087 37.0049 17.2594 36.8778 16.9404C36.7507 16.6214 36.5309 16.3471 36.2463 16.1523C35.9618 15.9575 35.6253 15.8509 35.2795 15.8462H22.1945L29.1732 2H9.98188Z" stroke="#F9B301" stroke-width="4" stroke-linecap="round" stroke-linejoin="round"/>
</svg>
