<svg width="100" height="126" viewBox="0 0 100 126" fill="none" xmlns="http://www.w3.org/2000/svg">
<path d="M53.7391 1.17753C52.6431 0.411089 51.3377 0 50 0C48.6623 0 47.3569 0.411089 46.2609 1.17753C37.8572 7.36661 30.1687 14.4707 23.337 22.3587C8.07065 39.8794 0 58.4482 0 76.0341C0 89.2859 5.26784 101.995 14.6447 111.365C24.0215 120.736 36.7392 126 50 126C63.2608 126 75.9785 120.736 85.3553 111.365C94.7322 101.995 100 89.2859 100 76.0341C100 34.0193 55.6304 2.49728 53.7391 1.17753ZM50 112.965C40.2016 112.955 30.8074 109.061 23.8789 102.137C16.9504 95.2136 13.0535 85.8258 13.0435 76.0341C13.0435 57.9432 23.913 41.6173 32.9891 31.1136C38.171 25.1654 43.8629 19.6809 50 14.7226C56.1371 19.6809 61.829 25.1654 67.0109 31.1136C76.087 41.6173 86.9565 57.9432 86.9565 76.0341C86.9464 85.8258 83.0496 95.2136 76.1211 102.137C69.1926 109.061 59.7984 112.955 50 112.965ZM76.9674 84.5066C75.6022 88.8436 73.2094 92.787 69.9923 96.0019C66.7753 99.2168 62.8291 101.608 58.4891 102.972C57.8556 103.169 57.1961 103.27 56.5326 103.271C54.9736 103.272 53.4658 102.715 52.2824 101.701C51.0989 100.687 50.3182 99.2825 50.0817 97.7426C49.8451 96.2027 50.1684 94.6291 50.9929 93.3069C51.8174 91.9846 53.0886 91.0013 54.5761 90.5351C56.915 89.8007 59.0417 88.5126 60.7752 86.7802C62.5087 85.0479 63.7978 82.9226 64.5326 80.5853C64.7895 79.7687 65.2049 79.0106 65.755 78.3544C66.3051 77.6982 66.9792 77.1567 67.7387 76.7608C69.2726 75.9612 71.0616 75.8034 72.712 76.3219C73.5291 76.5787 74.2877 76.9938 74.9444 77.5435C75.6011 78.0932 76.1429 78.7668 76.5391 79.5258C76.9353 80.2848 77.178 81.1144 77.2533 81.9671C77.3287 82.8199 77.2352 83.6791 76.9783 84.4957L76.9674 84.5066Z" fill="#949494"/>
</svg>
