<svg width="21" height="29" viewBox="0 0 21 29" fill="none" xmlns="http://www.w3.org/2000/svg">
<path d="M8.70718 20.9657C8.63183 20.9287 8.56922 20.8635 8.52922 20.7805C8.48922 20.6975 8.47411 20.6013 8.48628 20.5071L9.15635 15.4286H7.37808C7.3217 15.4304 7.26573 15.4171 7.21448 15.3897C7.16323 15.3623 7.11808 15.3215 7.0825 15.2706C7.04692 15.2196 7.02187 15.1599 7.00929 15.0959C6.9967 15.0319 6.99691 14.9654 7.0099 14.9015L8.11442 9.33015C8.13386 9.23427 8.18108 9.1491 8.24813 9.089C8.31519 9.0289 8.39799 8.99752 8.48259 9.00015H12.1643C12.2193 8.99994 12.2737 9.01407 12.3234 9.04151C12.3731 9.06895 12.4168 9.109 12.4515 9.15872C12.4866 9.20901 12.5115 9.26792 12.5243 9.33101C12.537 9.39411 12.5373 9.45976 12.5251 9.523L11.8882 12.8572H13.637C13.706 12.8571 13.7737 12.8795 13.8323 12.9219C13.8908 12.9644 13.938 13.0251 13.9684 13.0972C13.9948 13.1665 14.0049 13.2426 13.9978 13.3179C13.9907 13.3932 13.9666 13.4649 13.9279 13.5258L9.14162 20.8114C9.10928 20.8672 9.06609 20.9134 9.01555 20.9462C8.96502 20.9789 8.90857 20.9974 8.85077 21C8.80151 20.9988 8.75285 20.9872 8.70718 20.9657Z" fill="#2129DC"/>
<path d="M7.1 27C2.85 27 2 24.5 2 22.8333V6.16667C2 4.5 4.55 2 7.1 2H13.9C16.62 2 19 4.68336 19 6.16667V22.8333C19 26.1667 15.6 27 13.9 27H7.1Z" stroke="#2129DC" stroke-width="2.5"/>
</svg>
