<svg width="29" height="25" viewBox="0 0 29 25" fill="none" xmlns="http://www.w3.org/2000/svg">
<path d="M24.7901 3.43137H19.6078V-7.62939e-06H0V21.0784C0.0011677 22.1181 0.414707 23.1149 1.14989 23.8501C1.88507 24.5853 2.88186 24.9988 3.92157 25H15.6863C16.726 24.9988 17.7228 24.5853 18.458 23.8501C19.1931 23.1149 19.6067 22.1181 19.6078 21.0784V20.5882H24.7901C25.7555 20.5871 26.681 20.2032 27.3637 19.5205C28.0463 18.8379 28.4303 17.9123 28.4314 16.9469V7.07266C28.4303 6.10726 28.0463 5.18172 27.3637 4.49908C26.681 3.81644 25.7555 3.43245 24.7901 3.43137ZM7.92733 10.7165L9.80392 12.5932V16.1087H5.88235V12.5932L7.75901 10.7165H7.92733ZM26.4706 16.9469C26.4701 17.3925 26.2929 17.8196 25.9778 18.1347C25.6628 18.4497 25.2356 18.6269 24.7901 18.6274H17.6471V21.0784C17.6465 21.5983 17.4397 22.0967 17.0721 22.4643C16.7045 22.8319 16.2061 23.0386 15.6863 23.0392H3.92157C3.40172 23.0386 2.90332 22.8319 2.53573 22.4643C2.16814 22.0967 1.96137 21.5983 1.96078 21.0784V1.96078H6.86274V8.83982L3.92157 11.781V18.0695H11.7647V11.781L8.82353 8.83982V1.96078H17.6471V5.39215H24.7901C25.2356 5.39265 25.6628 5.56987 25.9778 5.88492C26.2929 6.19996 26.4701 6.62712 26.4706 7.07266V16.9469Z" fill="#88B40A"/>
<path d="M23.5294 7.10783H17.6471V16.9118H23.5294C23.8543 16.9114 24.1658 16.7821 24.3955 16.5524C24.6253 16.3227 24.7545 16.0112 24.7549 15.6863V8.33332C24.7545 8.00842 24.6253 7.69693 24.3955 7.46718C24.1658 7.23744 23.8543 7.10821 23.5294 7.10783ZM22.7941 14.951H19.6078V9.06862H22.7941V14.951Z" fill="#88B40A"/>
</svg>
