<svg width="15" height="27" viewBox="0 0 15 27" fill="none" xmlns="http://www.w3.org/2000/svg">
<path d="M2.25 1H12.25ZM3.5 1V4.48625C3.49997 5.47349 3.20769 6.43862 2.66 7.26L1.84 8.49C1.29207 9.31173 0.999779 10.2773 1 11.265V23.5C1 24.163 1.26339 24.7989 1.73223 25.2678C2.20107 25.7366 2.83696 26 3.5 26H11C11.663 26 12.2989 25.7366 12.7678 25.2678C13.2366 24.7989 13.5 24.163 13.5 23.5V11.2638C13.5 10.2765 13.2077 9.31138 12.66 8.49L11.84 7.26C11.2921 6.43827 10.9998 5.47266 11 4.485V1" fill="white"/>
<path d="M2.25 1H12.25M3.5 1V4.48625C3.49997 5.47349 3.20769 6.43862 2.66 7.26L1.84 8.49C1.29207 9.31173 0.999779 10.2773 1 11.265V23.5C1 24.163 1.26339 24.7989 1.73223 25.2678C2.20107 25.7366 2.83696 26 3.5 26H11C11.663 26 12.2989 25.7366 12.7678 25.2678C13.2366 24.7989 13.5 24.163 13.5 23.5V11.2638C13.5 10.2765 13.2077 9.31138 12.66 8.49L11.84 7.26C11.2921 6.43827 10.9998 5.47266 11 4.485V1" stroke="#BABABA" stroke-width="2" stroke-linecap="round" stroke-linejoin="round"/>
<path d="M1 12.25C1.98968 11.8354 3.05198 11.6219 4.125 11.6219C5.19802 11.6219 6.26032 11.8354 7.25 12.25C8.23968 12.6646 9.30198 12.8782 10.375 12.8782C11.448 12.8782 12.5103 12.6646 13.5 12.25" fill="white"/>
<path d="M1 12.25C1.98968 11.8354 3.05198 11.6219 4.125 11.6219C5.19802 11.6219 6.26032 11.8354 7.25 12.25C8.23968 12.6646 9.30198 12.8782 10.375 12.8782C11.448 12.8782 12.5103 12.6646 13.5 12.25" stroke="#BABABA" stroke-width="2" stroke-linecap="round" stroke-linejoin="round"/>
<circle cx="6.75" cy="20.75" r="0.75" fill="#BABABA"/>
<circle cx="9.75" cy="16.75" r="0.75" fill="#BABABA"/>
<circle cx="4.75" cy="14.75" r="0.75" fill="#BABABA"/>
</svg>
