<svg width="29" height="25" viewBox="0 0 29 25" fill="none" xmlns="http://www.w3.org/2000/svg">
<path d="M6.57895 0C6.22998 0 5.8953 0.138627 5.64854 0.385386C5.40178 0.632144 5.26316 0.96682 5.26316 1.31579V3.94737C5.26316 4.29634 5.40178 4.63101 5.64854 4.87777C5.8953 5.12453 6.22998 5.26316 6.57895 5.26316C6.92792 5.26316 7.26259 5.12453 7.50935 4.87777C7.75611 4.63101 7.89474 4.29634 7.89474 3.94737V1.31579C7.89474 0.96682 7.75611 0.632144 7.50935 0.385386C7.26259 0.138627 6.92792 0 6.57895 0Z" fill="#D2127A"/>
<path fill-rule="evenodd" clip-rule="evenodd" d="M15.7895 25C17.6552 24.9997 19.4606 24.3389 20.8857 23.1347C22.3108 21.9305 23.2635 20.2606 23.575 18.421H23.6842C25.0801 18.421 26.4188 17.8665 27.4058 16.8795C28.3929 15.8924 28.9474 14.5537 28.9474 13.1579C28.9474 11.762 28.3929 10.4233 27.4058 9.43625C26.4188 8.44922 25.0801 7.89471 23.6842 7.89471V6.57892H0V17.1052C0 19.199 0.831764 21.2071 2.31231 22.6877C3.79287 24.1682 5.80092 25 7.89474 25H15.7895ZM2.63158 9.2105V17.1052C2.63158 18.5011 3.18609 19.8398 4.17312 20.8268C5.16016 21.8139 6.49886 22.3684 7.89474 22.3684H15.7895C17.1853 22.3684 18.5241 21.8139 19.5111 20.8268C20.4981 19.8398 21.0526 18.5011 21.0526 17.1052V9.2105H2.63158ZM26.3158 13.1579C26.3158 13.8558 26.0385 14.5252 25.545 15.0187C25.0515 15.5122 24.3821 15.7894 23.6842 15.7894V10.5263C24.3821 10.5263 25.0515 10.8035 25.545 11.2971C26.0385 11.7906 26.3158 12.4599 26.3158 13.1579Z" fill="#D2127A"/>
<path d="M10.5263 1.31579C10.5263 0.96682 10.6649 0.632144 10.9117 0.385386C11.1585 0.138627 11.4931 0 11.8421 0C12.1911 0 12.5258 0.138627 12.7725 0.385386C13.0193 0.632144 13.1579 0.96682 13.1579 1.31579V3.94737C13.1579 4.29634 13.0193 4.63101 12.7725 4.87777C12.5258 5.12453 12.1911 5.26316 11.8421 5.26316C11.4931 5.26316 11.1585 5.12453 10.9117 4.87777C10.6649 4.63101 10.5263 4.29634 10.5263 3.94737V1.31579ZM17.1053 0C16.7563 0 16.4216 0.138627 16.1749 0.385386C15.9281 0.632144 15.7895 0.96682 15.7895 1.31579V3.94737C15.7895 4.29634 15.9281 4.63101 16.1749 4.87777C16.4216 5.12453 16.7563 5.26316 17.1053 5.26316C17.4542 5.26316 17.7889 5.12453 18.0357 4.87777C18.2824 4.63101 18.4211 4.29634 18.4211 3.94737V1.31579C18.4211 0.96682 18.2824 0.632144 18.0357 0.385386C17.7889 0.138627 17.4542 0 17.1053 0Z" fill="#D2127A"/>
</svg>
