<svg width="24" height="25" viewBox="0 0 24 25" fill="none" xmlns="http://www.w3.org/2000/svg">
<path d="M8.52891 2.38326C8.88344 2.38322 9.23372 2.45877 9.55529 2.60466C9.87685 2.75054 10.162 2.96323 10.3907 3.22788C10.6195 3.49254 10.7864 3.80279 10.8797 4.13697C10.9731 4.47116 10.9907 4.82122 10.9313 5.16274L13.335 5.55556C13.4274 5.01914 13.4254 4.47123 13.3289 3.93549C13.7899 3.65339 14.3343 3.53016 14.8753 3.5854C15.4163 3.64064 15.9229 3.87119 16.3143 4.24032C16.7056 4.60944 16.9593 5.09592 17.035 5.62226C17.1106 6.1486 17.0038 6.68453 16.7315 7.14468H3.65583C3.46673 7.14448 3.28028 7.10127 3.11124 7.01848C2.94219 6.93569 2.79519 6.81558 2.68187 6.66768C2.56855 6.51977 2.49203 6.34811 2.45835 6.16631C2.42468 5.9845 2.43478 5.79753 2.48786 5.6202C2.54094 5.44286 2.63554 5.28004 2.76417 5.14461C2.89279 5.00918 3.05192 4.90487 3.22895 4.83993C3.40598 4.77499 3.59605 4.7512 3.78411 4.77046C3.97217 4.78971 4.15307 4.85147 4.31247 4.95086C4.47657 5.05356 4.66349 5.11629 4.85753 5.1338C5.05158 5.15131 5.2471 5.12308 5.42767 5.05148C5.60824 4.97988 5.76859 4.867 5.89527 4.72232C6.02196 4.57764 6.11127 4.40537 6.15572 4.21998C6.2815 3.69728 6.58435 3.23144 7.01513 2.89803C7.44592 2.56463 7.97936 2.38323 8.52891 2.38326ZM10.3758 0.356091C9.2749 -0.0851894 8.04675 -0.117423 6.92318 0.265476C5.79962 0.648374 4.85838 1.41991 4.27714 2.43445C3.49502 2.3024 2.69016 2.42271 1.98422 2.77719C1.27828 3.13168 0.709626 3.70108 0.364222 4.39932C0.0188172 5.09756 -0.0845661 5.88669 0.0696988 6.64743C0.223964 7.40817 0.627491 8.09916 1.21929 8.61596V22.6193C1.21929 23.2507 1.47599 23.8562 1.93293 24.3027C2.38987 24.7492 3.00962 25 3.65583 25H15.8385C16.4847 25 17.1045 24.7492 17.5614 24.3027C18.0184 23.8562 18.2751 23.2507 18.2751 22.6193H20.7116C21.3578 22.6193 21.9776 22.3685 22.4345 21.922C22.8914 21.4755 23.1481 20.87 23.1481 20.2386V11.9061C23.1481 11.2747 22.8914 10.6692 22.4345 10.2227C21.9776 9.77622 21.3578 9.52539 20.7116 9.52539H18.2751V9.10401C19.0324 8.26617 19.4639 7.1947 19.494 6.07725C19.5241 4.95981 19.1509 3.86764 18.4397 2.99205C17.7285 2.11647 16.7246 1.51329 15.604 1.28816C14.4834 1.06303 13.3175 1.23032 12.3104 1.76071C11.7957 1.14198 11.1306 0.659074 10.3758 0.356091ZM18.2751 11.9061H20.7116V20.2386H18.2751V11.9061ZM15.8385 9.52539V22.6193H3.65583V9.52539H15.8385ZM6.09237 11.9061V20.2386H8.52891V11.9061H6.09237ZM13.402 11.9061V20.2386H10.9654V11.9061H13.402Z" fill="#4E1C07"/>
</svg>
