<svg width="21" height="27" viewBox="0 0 21 27" fill="none" xmlns="http://www.w3.org/2000/svg">
<path d="M14.421 26H5.99999C5.34739 26.0036 4.71673 25.7646 4.23044 25.3293C3.74415 24.8941 3.43693 24.2937 3.36842 23.6447L1 1H19.421L17.0394 23.6447C16.9712 24.2914 16.6658 24.89 16.1823 25.3249C15.6988 25.7598 15.0714 26.0003 14.421 26Z" stroke="#01CCF9" stroke-width="2" stroke-linecap="round" stroke-linejoin="round"/>
<path d="M2.31579 12.8421C3.45458 11.988 4.83966 11.5263 6.26315 11.5263C7.68664 11.5263 9.07172 11.988 10.2105 12.8421C11.3493 13.6962 12.7344 14.1579 14.1579 14.1579C15.5814 14.1579 16.9664 13.6962 18.1052 12.8421" stroke="#01CCF9" stroke-width="2" stroke-linecap="round" stroke-linejoin="round"/>
<circle cx="9.5" cy="22.5" r="1" stroke="#01CCF9"/>
<path d="M13.5 19.5C14.0523 19.5 14.5 19.0523 14.5 18.5C14.5 17.9477 14.0523 17.5 13.5 17.5C12.9477 17.5 12.5 17.9477 12.5 18.5C12.5 19.0523 12.9477 19.5 13.5 19.5Z" stroke="#01CCF9"/>
<circle cx="6.75" cy="15.75" r="1.25" stroke="#01CCF9"/>
</svg>
