<svg width="22" height="30" viewBox="0 0 22 30" fill="none" xmlns="http://www.w3.org/2000/svg">
<path d="M15.5714 28.1429H6.42857C5.72003 28.1468 5.03531 27.8873 4.50734 27.4147C3.97937 26.9422 3.64582 26.2903 3.57143 25.5857L1 1H21L18.4143 25.5857C18.3401 26.2879 18.0086 26.9377 17.4837 27.4099C16.9587 27.8821 16.2775 28.1432 15.5714 28.1429Z" stroke="#F9B301" stroke-width="2" stroke-linecap="round" stroke-linejoin="round"/>
<path d="M2.42857 13.8571C3.66497 12.9298 5.16878 12.4286 6.71429 12.4286C8.25979 12.4286 9.7636 12.9298 11 13.8571C12.2364 14.7844 13.7402 15.2857 15.2857 15.2857C16.8312 15.2857 18.335 14.7844 19.5714 13.8571" stroke="#F9B301" stroke-width="2" stroke-linecap="round" stroke-linejoin="round"/>
</svg>
