<?xml version="1.0" standalone="no"?>
<!DOCTYPE svg PUBLIC "-//W3C//DTD SVG 20010904//EN"
 "http://www.w3.org/TR/2001/REC-SVG-20010904/DTD/svg10.dtd">
<svg version="1.0" xmlns="http://www.w3.org/2000/svg"
 width="1008.000000pt" height="1008.000000pt" viewBox="0 0 1008.000000 1008.000000"
 preserveAspectRatio="xMidYMid meet">
<metadata>
Created by potrace 1.14, written by Peter Selinger 2001-2017
</metadata>
<g transform="translate(0.000000,1008.000000) scale(0.100000,-0.100000)"
fill="#000000" stroke="none">
<path d="M4930 10069 c-92 -18 -228 -102 -424 -262 -21 -18 -46 -36 -55 -41
-9 -5 -18 -12 -21 -15 -3 -4 -67 -57 -142 -118 -155 -127 -171 -140 -202 -168
-12 -11 -46 -40 -75 -65 -29 -25 -67 -58 -85 -75 -18 -16 -75 -68 -127 -115
-122 -110 -549 -536 -664 -664 -50 -54 -99 -108 -110 -120 -11 -12 -60 -68
-110 -126 -49 -58 -92 -107 -95 -110 -6 -5 -46 -54 -100 -120 -19 -24 -49 -59
-66 -79 -17 -20 -52 -65 -79 -101 -27 -36 -52 -67 -55 -70 -3 -3 -17 -21 -30
-40 -13 -19 -27 -37 -30 -40 -3 -3 -23 -30 -45 -60 -22 -30 -43 -59 -48 -65
-4 -5 -35 -48 -67 -95 -33 -47 -63 -89 -68 -95 -4 -5 -17 -25 -27 -42 -11 -18
-23 -33 -27 -33 -4 0 -8 -5 -8 -11 0 -6 -25 -46 -55 -90 -30 -44 -55 -83 -55
-87 0 -5 -8 -17 -18 -28 -9 -10 -24 -32 -32 -49 -8 -16 -17 -32 -20 -35 -11
-10 -112 -183 -181 -312 -40 -73 -78 -142 -84 -153 -7 -11 -13 -23 -14 -27 -1
-4 -28 -59 -60 -122 -33 -63 -57 -117 -53 -120 3 -3 0 -6 -6 -6 -7 0 -12 -5
-12 -11 0 -6 -14 -41 -31 -77 -133 -286 -291 -741 -366 -1057 -24 -102 -26
-114 -43 -200 -6 -27 -13 -61 -15 -75 -6 -27 -14 -71 -20 -110 -30 -200 -43
-300 -41 -332 1 -16 0 -28 -3 -28 -23 0 -20 -724 3 -860 3 -14 7 -50 10 -80 7
-59 7 -62 30 -190 24 -133 25 -137 66 -295 88 -337 205 -633 371 -935 65 -119
187 -312 202 -318 4 -2 7 -8 7 -14 0 -6 16 -30 35 -54 19 -23 35 -45 35 -48 0
-3 9 -16 19 -28 11 -13 29 -34 40 -47 12 -13 21 -27 21 -30 0 -3 15 -23 33
-43 17 -20 50 -58 72 -84 38 -45 57 -66 151 -166 41 -43 175 -171 250 -239 62
-56 222 -182 309 -243 44 -31 85 -60 90 -64 6 -4 28 -19 50 -32 22 -13 42 -28
43 -32 2 -4 10 -8 17 -8 7 0 15 -3 17 -7 2 -5 18 -16 36 -26 17 -9 47 -25 64
-35 18 -9 35 -20 38 -23 3 -4 70 -39 150 -79 80 -39 163 -81 185 -93 22 -12
40 -20 40 -18 0 2 27 -9 59 -23 33 -15 71 -29 85 -33 14 -3 31 -9 36 -13 6 -4
42 -18 80 -30 39 -12 75 -25 80 -29 6 -3 16 -6 22 -7 7 -1 41 -11 76 -22 34
-12 74 -23 87 -26 14 -3 68 -16 120 -30 52 -13 109 -27 125 -30 17 -3 41 -7
55 -10 34 -8 140 -27 165 -31 11 -1 47 -6 80 -10 33 -4 74 -9 90 -11 175 -25
702 -25 875 0 19 3 58 8 85 11 45 5 71 9 130 20 11 2 20 4 20 5 0 1 18 3 40 6
57 6 68 9 83 17 6 5 12 6 12 3 0 -2 28 2 63 11 34 8 70 16 80 18 10 2 27 7 37
10 10 3 27 7 37 9 30 6 137 37 158 46 11 4 58 20 105 35 170 55 555 223 603
263 9 8 17 11 17 6 0 -5 4 -4 8 1 4 6 27 21 52 34 25 14 63 36 85 50 22 14 42
26 45 26 3 0 57 35 120 77 297 199 573 443 812 719 125 143 368 480 368 509 0
5 4 10 9 10 5 0 14 14 21 31 7 17 18 36 24 42 36 38 240 460 229 471 -4 3 -1
6 5 6 7 0 12 6 12 13 0 8 7 28 16 46 9 17 17 37 18 44 2 7 8 26 15 42 19 49
43 118 42 122 -1 2 8 27 19 55 17 49 44 139 55 184 2 11 9 39 16 64 23 95 28
119 35 160 3 19 7 37 9 40 2 3 6 26 10 50 3 25 9 54 12 64 3 11 7 38 9 60 2
23 5 52 8 66 36 184 43 784 10 1020 -2 19 -6 55 -9 80 -2 25 -7 62 -10 83 -3
20 -7 54 -10 75 -5 38 -15 91 -22 127 -2 11 -6 34 -8 50 -3 17 -7 41 -11 55
-3 14 -7 34 -9 45 -4 25 -11 57 -26 115 -6 25 -13 56 -16 70 -7 33 -9 42 -16
60 -3 8 -10 38 -16 65 -16 70 -117 393 -141 450 -4 11 -13 36 -20 55 -7 19
-19 49 -26 67 -8 17 -14 34 -14 38 0 4 -6 21 -14 38 -8 18 -31 73 -52 122 -20
50 -52 122 -69 160 -18 39 -34 73 -35 77 -4 16 -162 324 -171 333 -5 5 -9 17
-9 27 0 10 -4 18 -10 18 -5 0 -10 4 -10 9 0 14 -104 195 -196 341 -16 25 -29
47 -29 50 -1 7 -160 251 -179 275 -28 35 -66 96 -66 104 0 5 -7 11 -15 15 -8
3 -15 10 -15 16 0 5 -7 18 -15 27 -8 10 -37 50 -65 88 -61 83 -73 99 -168 224
-41 53 -77 98 -81 101 -3 3 -19 23 -36 45 -43 58 -175 215 -272 324 -17 20
-40 46 -50 58 -188 217 -588 623 -843 853 -45 41 -100 91 -120 110 -21 19 -59
53 -85 75 -26 22 -59 50 -74 63 -14 13 -44 37 -65 55 -22 18 -46 39 -55 47 -9
8 -39 33 -66 55 -28 21 -52 42 -55 45 -3 4 -79 63 -170 132 -91 70 -173 134
-182 142 -10 9 -20 16 -22 16 -3 0 -26 13 -53 30 -81 50 -149 71 -248 74 -49
2 -110 0 -135 -5z m200 -1240 c151 -126 199 -168 266 -227 22 -20 76 -68 119
-107 163 -147 428 -407 595 -585 169 -179 181 -192 230 -250 25 -28 54 -62 65
-74 11 -12 38 -44 60 -70 22 -27 45 -54 50 -60 6 -6 28 -33 50 -61 21 -27 44
-54 49 -60 6 -5 31 -37 56 -70 24 -33 50 -67 57 -75 13 -15 83 -107 115 -152
9 -12 38 -52 64 -88 26 -36 96 -139 156 -230 59 -91 112 -170 117 -176 5 -6
12 -20 15 -32 4 -12 11 -22 16 -22 4 0 10 -8 14 -17 3 -10 17 -36 31 -58 14
-22 28 -48 32 -57 3 -10 9 -18 14 -18 5 0 9 -6 9 -14 0 -7 9 -25 21 -40 11
-14 17 -26 14 -26 -4 0 -3 -6 3 -12 28 -36 232 -439 236 -469 1 -3 11 -25 22
-50 46 -93 160 -391 169 -439 2 -10 8 -27 13 -37 6 -10 10 -20 10 -23 1 -3 3
-12 6 -20 3 -8 10 -35 17 -60 7 -25 14 -49 15 -55 2 -5 11 -39 20 -75 16 -66
20 -81 23 -90 1 -3 6 -23 12 -45 10 -42 15 -65 33 -157 11 -53 35 -200 34
-206 0 -4 1 -9 2 -12 1 -3 3 -21 5 -40 2 -19 6 -51 9 -71 33 -210 23 -670 -18
-886 -3 -11 -7 -38 -11 -59 -7 -45 -42 -195 -55 -239 -6 -16 -24 -75 -40 -129
-17 -55 -34 -104 -38 -110 -4 -6 -7 -13 -7 -16 -2 -19 -60 -156 -69 -162 -6
-4 -8 -8 -4 -8 3 0 -12 -37 -35 -82 -22 -46 -40 -86 -39 -90 1 -5 -2 -8 -7 -8
-5 0 -13 -10 -17 -22 -8 -27 -96 -173 -159 -264 -181 -261 -364 -453 -651
-682 -50 -41 -252 -172 -263 -172 -6 0 -11 -4 -11 -9 0 -12 -343 -181 -435
-215 -38 -14 -83 -31 -100 -37 -16 -7 -35 -13 -42 -15 -16 -3 -84 -24 -103
-31 -19 -8 -8 -5 -120 -32 -52 -13 -104 -25 -115 -27 -11 -1 -20 -3 -20 -4 0
-1 -9 -3 -20 -4 -11 -2 -33 -6 -50 -9 -35 -7 -106 -18 -155 -23 -19 -1 -66 -6
-105 -10 -86 -9 -359 -9 -480 -1 -106 8 -198 20 -320 43 -125 24 -310 74 -425
116 -30 11 -59 21 -65 23 -5 1 -27 9 -47 19 -21 9 -40 16 -42 16 -3 0 -38 16
-78 35 -40 20 -74 36 -76 35 -6 -1 -115 57 -202 108 -101 60 -198 124 -299
199 -118 86 -309 265 -423 394 -107 121 -118 134 -124 152 -3 9 -9 17 -13 17
-4 0 -25 26 -47 57 -21 32 -42 60 -46 61 -5 2 -8 7 -8 12 0 5 -18 35 -39 68
-39 59 -50 77 -108 182 -48 87 -57 105 -59 110 0 3 -13 32 -29 65 -50 109 -83
193 -77 199 3 3 0 6 -7 6 -7 0 -10 4 -6 9 3 5 1 12 -4 15 -4 3 -12 20 -16 38
-4 18 -8 35 -9 38 -1 3 -4 10 -8 16 -4 6 -9 22 -12 37 -2 15 -8 32 -11 37 -4
6 -8 21 -10 33 -2 12 -11 49 -20 82 -24 92 -35 146 -49 232 -3 16 -7 39 -10
53 -17 77 -29 266 -30 435 0 185 10 346 28 475 3 19 8 55 11 80 3 25 10 68 15
95 5 28 12 61 14 75 3 14 8 36 11 50 3 14 8 39 11 55 2 17 10 48 16 70 5 22
12 50 14 62 2 12 20 75 39 140 98 339 203 603 368 928 98 194 115 226 137 260
11 17 24 40 29 51 5 12 44 76 85 143 42 68 76 126 76 131 0 5 3 10 8 12 4 2
32 41 62 88 30 47 59 90 63 95 12 15 130 184 142 203 6 9 16 23 23 30 7 8 21
27 30 41 20 31 41 57 65 83 9 10 17 21 17 24 0 3 17 27 38 52 20 26 44 56 53
67 34 42 233 281 250 300 10 11 31 34 46 51 297 334 545 583 917 919 27 25
124 108 191 165 28 24 52 47 53 51 2 5 10 9 17 9 7 0 15 4 17 9 3 9 99 89 108
90 3 0 43 -31 90 -70z"/>
<path d="M6595 3988 c-81 -15 -192 -76 -261 -143 -46 -45 -72 -82 -103 -147
-22 -48 -42 -95 -44 -105 -2 -10 -12 -37 -21 -60 -10 -23 -17 -45 -16 -49 1
-4 -2 -10 -7 -13 -5 -3 -19 -26 -32 -51 -74 -144 -242 -332 -377 -422 -89 -59
-238 -135 -284 -144 -8 -2 -23 -7 -35 -12 -11 -5 -40 -18 -65 -28 -136 -56
-259 -204 -294 -355 -13 -55 -14 -191 -2 -236 3 -13 8 -32 10 -43 11 -49 76
-150 132 -208 44 -43 85 -73 136 -97 90 -43 123 -50 253 -57 12 -1 78 10 114
18 49 12 266 97 319 125 28 16 52 25 52 21 0 -4 4 -2 8 3 4 6 32 23 62 39 78
41 263 164 317 211 151 130 210 189 348 348 14 16 103 141 137 192 106 160
228 429 265 585 19 80 17 219 -4 252 -2 5 -6 17 -8 27 -9 48 -65 140 -120 196
-77 79 -163 129 -260 151 -41 10 -172 11 -220 2z"/>
</g>
</svg>
