<svg width="16" height="25" viewBox="0 0 16 25" fill="none" xmlns="http://www.w3.org/2000/svg">
<path d="M12.5526 9.68717C12.5926 9.44588 12.5367 9.1985 12.3968 8.99788C12.2569 8.79726 12.0441 8.6593 11.8038 8.61346C11.5635 8.56763 11.3149 8.61756 11.1109 8.75259C10.907 8.88762 10.764 9.09703 10.7123 9.33611C10.5862 9.99901 10.2471 10.6026 9.74662 11.0552C9.33507 11.4299 8.83086 11.6878 8.28617 11.8023C8.16567 11.8274 8.0513 11.8761 7.94961 11.9455C7.84792 12.0149 7.76089 12.1036 7.69348 12.2066C7.62608 12.3096 7.57963 12.4249 7.55678 12.5459C7.53393 12.6669 7.53514 12.7911 7.56032 12.9116C7.5855 13.0322 7.63418 13.1465 7.70356 13.2482C7.77294 13.3499 7.86167 13.4369 7.96469 13.5043C8.0677 13.5717 8.18299 13.6182 8.30395 13.641C8.42492 13.6639 8.54921 13.6627 8.66971 13.6375C9.54207 13.4543 10.3496 13.0411 11.0084 12.4407C11.8071 11.7138 12.3489 10.7477 12.5526 9.68717ZM0.148148 0.936985C0.148148 0.688481 0.246865 0.450155 0.422584 0.274436C0.598303 0.0987176 0.836629 0 1.08513 0H14.2029C14.4514 0 14.6897 0.0987176 14.8655 0.274436C15.0412 0.450155 15.1399 0.688481 15.1399 0.936985V9.05752C15.1403 10.9664 14.4414 12.8092 13.1753 14.2378C11.9092 15.6664 10.1637 16.5817 8.26868 16.8108V23.1235L11.7018 23.1123C11.9503 23.1116 12.1889 23.2097 12.3651 23.385C12.5413 23.5602 12.6406 23.7983 12.6413 24.0468C12.6419 24.2953 12.5439 24.5339 12.3686 24.7101C12.1934 24.8862 11.9553 24.9856 11.7068 24.9863L7.3342 25H7.32795L3.58001 24.9863C3.33151 24.9853 3.09358 24.8856 2.91856 24.7092C2.74354 24.5328 2.64578 24.294 2.64677 24.0455C2.64777 23.797 2.74744 23.5591 2.92386 23.3841C3.10028 23.2091 3.339 23.1113 3.58751 23.1123L6.39471 23.1223V16.8058C4.66646 16.5784 3.07984 15.7304 1.93057 14.4197C0.781308 13.1091 0.147807 11.4253 0.148148 9.68217V0.936985ZM2.02212 1.87397V5.30958H13.2659V1.87397H2.02212ZM2.02212 9.68217C2.02212 11.0904 2.58152 12.4409 3.57726 13.4366C4.573 14.4324 5.92351 14.9918 7.3317 14.9918C8.90555 14.9918 10.4149 14.3665 11.5278 13.2537C12.6407 12.1408 13.2659 10.6314 13.2659 9.05752V7.18355H2.02212V9.68217Z" fill="#91033F"/>
</svg>
